<svg width="84" height="34" viewBox="0 0 84 34" fill="none" xmlns="http://www.w3.org/2000/svg">
<circle cx="8.99988" cy="8.49988" r="8.49988" fill="black"/>
<rect x="0.5" y="7.72705" width="16.9998" height="9.2726" fill="black"/>
<rect x="0.5" width="7.72716" height="16.9998" fill="black"/>
<circle cx="27.5453" cy="25.5004" r="8.49988" fill="black"/>
<circle cx="27.5453" cy="8.49988" r="8.49988" fill="black"/>
<rect x="19.0454" width="9.2726" height="33.9995" fill="black"/>
<circle cx="46.0902" cy="8.49988" r="8.49988" fill="black"/>
<path d="M73.1355 25.5004C73.1355 24.3841 72.9156 23.2789 72.4885 22.2476C72.0613 21.2164 71.4352 20.2793 70.6459 19.49C69.8567 18.7008 68.9196 18.0747 67.8884 17.6475C66.8571 17.2203 65.7518 17.0005 64.6356 17.0005C63.5194 17.0005 62.4141 17.2203 61.3829 17.6475C60.3516 18.0747 59.4146 18.7008 58.6253 19.49C57.836 20.2793 57.2099 21.2164 56.7828 22.2476C56.3556 23.2789 56.1357 24.3841 56.1357 25.5004L64.6356 25.5004H73.1355Z" fill="black"/>
<circle cx="64.6356" cy="8.49988" r="8.49988" fill="black"/>
<rect x="37.5903" y="7.72705" width="16.9998" height="9.2726" fill="black"/>
<rect x="74.6812" width="9.2726" height="16.9998" fill="black"/>
<rect x="56.1357" width="9.2726" height="24.7269" fill="black"/>
</svg>
